<?xml version="1.0" encoding="UTF-8"?>
<svg id="Ebene_1" xmlns="http://www.w3.org/2000/svg" version="1.1" viewBox="0 0 114 125.2">
  <!-- Generator: Adobe Illustrator 29.7.1, SVG Export Plug-In . SVG Version: 2.1.1 Build 8)  -->
  <path d="M57.1,0c15.2-.2,26.2,9.5,30.7,22.7,8.2,23.7,16.2,47.5,24.2,71.3,1.6,4.6,2.7,9.3,1.4,14.2-1.4,5.3-5.2,8.4-9.9,10.5-4.8,2.1-9.7,3.8-14.7,5.6-5.7,2-11,1-15.1-3.6-2.4-2.7-4.4-5.8-5.9-9.1-2.2-4.9-3.9-10.1-5.6-15.2-.8-2.3-2-3.7-4.6-3.7-2.8,0-5.3.1-6.5,3.3-1.8,5.1-4.1,10-5.8,15.1-2.6,7.9-13,15-22.6,12.6-6-1.5-11.8-3.4-16.5-7.7-5-4.6-7.2-10.3-5.9-16.8,1.3-6.3,3.3-12.5,5.3-18.7,6.4-19.4,12.9-38.9,19.4-58.3,2.7-7.9,7.2-14.5,14.7-18.5,5.4-2.9,11.4-3.7,17.4-3.7ZM57.2,16.1c-5.8,0-11.4.9-14.7,6.4-1.1,1.9-2,4-2.7,6.1-7.7,23-15.3,46-22.9,69-.3,1-.4,2.1-.7,3.2-.5,1.8.2,3.2,1.7,4,2.1,1.1,4.4,1.9,6.7,2.7,3.1,1,5.1.1,6.3-3,1.7-4.3,3.4-8.5,4.9-12.8,5.1-14.5,16.7-17.4,30-13.5,5.8,1.7,9.3,6.2,11.3,11.8,1.9,5.4,3.9,10.8,5.8,16.2.7,1.9,1.7,2.8,3.9,1.8,2.8-1.3,5.7-2.4,8.6-3.3,2.3-.7,2.7-1.7,1.9-4-8.2-24.1-16.3-48.3-24.6-72.4-2.2-6.7-6.1-12-15.5-12.2Z"/>
</svg>