<?xml version="1.0" encoding="UTF-8"?>
<svg id="Ebene_1" xmlns="http://www.w3.org/2000/svg" version="1.1" viewBox="0 0 576 512">
  <!-- Generator: Adobe Illustrator 29.7.1, SVG Export Plug-In . SVG Version: 2.1.1 Build 8)  -->
  <path d="M549.66,124.08c-6.28-23.65-24.79-42.28-48.28-48.6-42.59-11.49-213.37-11.49-213.37-11.49,0,0-170.78,0-213.37,11.49-23.5,6.32-42,24.95-48.28,48.6-11.41,42.87-11.41,132.31-11.41,132.31,0,0,0,89.44,11.41,132.3,6.28,23.65,24.79,41.5,48.28,47.82,42.59,11.49,213.37,11.49,213.37,11.49,0,0,170.78,0,213.37-11.49,23.5-6.32,42-24.17,48.28-47.82,11.41-42.87,11.41-132.3,11.41-132.3,0,0,0-89.44-11.41-132.31ZM232.15,337.59v-162.41l142.74,81.21-142.74,81.2Z"/>
</svg>