<?xml version="1.0" encoding="UTF-8"?>
<svg id="Ebene_1" xmlns="http://www.w3.org/2000/svg" version="1.1" viewBox="0 0 133.32 132.02">
  <!-- Generator: Adobe Illustrator 29.8.1, SVG Export Plug-In . SVG Version: 2.1.1 Build 2)  -->
  <defs>
    <style>
      .st0 {
        fill: #df833d;
      }

      .st1 {
        fill: #f79948;
      }

      .st2 {
        fill: #572919;
      }
    </style>
  </defs>
  <path class="st0" d="M85.65,2.23C58.86-3.13,32.07-.04,13.61,24.86,2.6,39.71-3.65,59.39,2.3,85.58c5.95,26.2,26.79,46.44,66.08,46.44s63.7-26.2,64.89-65.49c1.19-39.29-20.84-58.94-47.63-64.3Z"/>
  <path class="st1" d="M108.73,22.15C89.21,6.6,66.16-2.08,40.77,10.43,25.62,17.89,12.32,31.26,6.22,55.02.11,78.78,8.57,103.92,40.49,120.34c31.91,16.41,62.68,5.34,80.06-26.08,17.38-31.41,7.7-56.57-11.82-72.12Z"/>
  <path class="st2" d="M19.84,42.07c-4.52-.38-13.52,2.65-10.34,9.01,3.18,6.36,14.05,6.73,15.91,3.02,1.86-3.71,3.8-11.24-5.57-12.03Z"/>
  <path class="st2" d="M73.25,106.89c5.5-6.13,9.81-5.57,15.11,0,5.3,5.57-6.1,12.46-11.13,11.93-5.04-.53-6.96-8.6-3.98-11.93Z"/>
  <path class="st2" d="M117.26,48.03c-3.5,1.34-12.72,2.12-7.42,10.07,5.3,7.95,13.82,7.9,14.85,3.21,1.02-4.69.92-16.47-7.42-13.28Z"/>
  <path class="st2" d="M65.03,7.85c-4.01-.46-9.54,5.98-4.77,8.9,4.77,2.92,15.11-7.73,4.77-8.9Z"/>
  <path class="st2" d="M24.47,102.5c-2.19-3.2-9.99,3.33-4.6,5.45,5.39,2.12,8.84.77,4.6-5.45Z"/>
  <path class="st2" d="M105.33,20.2c-2.89-4.05-8.48.8-4.24,4.24s6.89-.53,4.24-4.24Z"/>
  <path class="st2" d="M117.57,92.7c-6.67-1.72-10.65,7.12-5.74,8.93,4.9,1.81,12.42-7.21,5.74-8.93Z"/>
  <path class="st2" d="M31.1,23.91c-3.26-3.8-6.54-.8-4.73,3.45,1.81,4.24,7.91.27,4.73-3.45Z"/>
  <path class="st2" d="M55.5,40.61c-3.02-2.82-9.29,3.16-3.73,6.88,5.57,3.72,7.98-2.91,3.73-6.88Z"/>
  <path class="st2" d="M85.45,70.83c-5.21-7.3-13.78,2.12-10.07,7.42,3.71,5.3,15.38,0,10.07-7.42Z"/>
  <path class="st2" d="M37.2,87.53c-2.92-1.86-4.24.27-1.86,2.39,2.39,2.12,1.86-2.39,1.86-2.39Z"/>
  <path class="st2" d="M82.3,17.54c-2.92-1.86-4.24.27-1.86,2.39,2.39,2.12,1.86-2.39,1.86-2.39Z"/>
  <path class="st2" d="M102.97,81.7c-3.47-1.06-4,2.39-2.15,3.45,1.86,1.06,5.62-2.39,2.15-3.45Z"/>
  <path class="st2" d="M124.14,83.63c-3.47-1.06-4,2.39-2.15,3.45,1.86,1.06,5.62-2.39,2.15-3.45Z"/>
  <path class="st2" d="M86.81,32.66c-2.16-1.78-4.01,2.92-1.89,4.24,2.12,1.33,5.1-1.59,1.89-4.24Z"/>
  <path class="st2" d="M49.56,20.2c-3.27-1.05-7.32,4.86-3.08,5.48,4.24.62,7.22-4.15,3.08-5.48Z"/>
  <path class="st2" d="M66.97,93.63c-2.2-2.53-6.24,2.31-3.03,3.54,3.21,1.23,6.02-.1,3.03-3.54Z"/>
  <path class="st2" d="M16.79,77.73c-1.88-2.46-6.89.39-3.18,3.78,3.71,3.38,6.63.73,3.18-3.78Z"/>
  <path class="st2" d="M35.44,56.31c-2.79-.05-5.32,3.38-2.32,5.77,3.01,2.39,5.87-5.7,2.32-5.77Z"/>
  <path class="st2" d="M78.29,52.28c-1.49-2.33-8.44.58-3.82,3.74,4.62,3.16,5.68-.82,3.82-3.74Z"/>
  <path class="st2" d="M55.56,68.52c-2.79-2.65-5.73,2.02-2.81,3.63,2.92,1.61,4.83-1.72,2.81-3.63Z"/>
  <path class="st2" d="M102.08,59.96c-.53-1.95-5.48,1.86-2.31,2.65,3.17.8,3.04,0,2.31-2.65Z"/>
  <path class="st2" d="M95.98,8.4c-.53-1.95-5.48,1.86-2.31,2.65,3.17.8,3.04,0,2.31-2.65Z"/>
  <path class="st2" d="M91.2,87.46c-.53-1.95-5.48,1.86-2.31,2.65,3.17.8,3.04,0,2.31-2.65Z"/>
  <path class="st2" d="M109.64,34.75c-1.47.15-2.32,3.21,0,4.01,2.32.8,2.99-4.31,0-4.01Z"/>
  <path class="st2" d="M102.08,105.25c-2.32-2.61-4.42,1.1-2.31,1.37,2.11.27,2.31-1.37,2.31-1.37Z"/>
  <path class="st2" d="M55.5,114.04c-1.92.19-1.58,1.59,0,2.65,1.58,1.06,2.66-2.92,0-2.65Z"/>
  <path class="st2" d="M122.29,68.59c-1.55.74-4.71,2.77-2.09,3.3,2.62.53,2.86-3.67,2.09-3.3Z"/>
  <path class="st2" d="M41.97,105.49c-1.59-.19-4.24-.93-1.33,1.16,2.92,2.09,1.33-1.16,1.33-1.16Z"/>
  <path class="st2" d="M107.49,79.61c-1.59-.19-4.24-.93-1.33,1.16,2.92,2.09,1.33-1.16,1.33-1.16Z"/>
  <path class="st2" d="M27.47,92.12c-1.59-.19-4.24-.93-1.33,1.16,2.92,2.09,1.33-1.16,1.33-1.16Z"/>
  <path class="st2" d="M61.05,22.12c-1.59-.19-4.24-.93-1.33,1.16,2.92,2.09,1.33-1.16,1.33-1.16Z"/>
  <path class="st2" d="M52.57,80.4c-1.46-.68-4.1,1.57-2.18,3.02,1.92,1.46,5.1-1.67,2.18-3.02Z"/>
  <path class="st2" d="M28.93,71.94c-1.02.47-1.64.76,0,2.34,1.64,1.59,1.64-3.1,0-2.34Z"/>
  <path class="st2" d="M40.76,38.59c-1.02.47-1.64.76,0,2.34,1.64,1.59,1.64-3.1,0-2.34Z"/>
  <path class="st2" d="M34,91.61c-1.02.47-1.64.76,0,2.34,1.64,1.59,1.64-3.1,0-2.34Z"/>
  <path class="st2" d="M10.71,93.97c-1.02.47-1.64.76,0,2.34,1.64,1.59,1.64-3.1,0-2.34Z"/>
  <path class="st2" d="M32.88,116c-1.02.47-1.64.76,0,2.34,1.64,1.59,1.64-3.1,0-2.34Z"/>
  <path class="st2" d="M98.61,75.5c-1.02.47-1.64.76,0,2.34,1.64,1.59,1.64-3.1,0-2.34Z"/>
  <path class="st2" d="M122.57,33.45c-1.02.47-1.64.76,0,2.34,1.64,1.59,1.64-3.1,0-2.34Z"/>
  <path class="st2" d="M39.34,45.38c-1.03-.41-4.96,2.97-2.09,3.21,2.87.24,4.76-2.15,2.09-3.21Z"/>
  <path class="st2" d="M22.53,31.27c-1.03-.41-4.96,2.97-2.09,3.21,2.87.24,4.76-2.15,2.09-3.21Z"/>
  <path class="st2" d="M66.97,29.19c-1.93-.24-5.44,3.21-3.03,3.08,2.42-.13,4.96-2.84,3.03-3.08Z"/>
  <path class="st2" d="M102.19,117.31c-1.93-.24-5.44,3.21-3.03,3.08,2.42-.13,4.96-2.84,3.03-3.08Z"/>
</svg>